<svg width="187" height="27" viewBox="0 0 187 27" fill="none" xmlns="http://www.w3.org/2000/svg">
<path d="M6.81108 0.545454L12.9634 19.8849H13.1996L19.3643 0.545454H25.3303L16.5554 26H9.62003L0.832742 0.545454H6.81108ZM34.767 26.3729C32.8363 26.3729 31.1667 25.9627 29.7581 25.1424C28.3577 24.3138 27.2764 23.1621 26.5141 21.6871C25.7518 20.204 25.3706 18.4846 25.3706 16.5291C25.3706 14.5571 25.7518 12.8336 26.5141 11.3587C27.2764 9.87547 28.3577 8.72372 29.7581 7.90341C31.1667 7.07481 32.8363 6.66051 34.767 6.66051C36.6976 6.66051 38.3631 7.07481 39.7634 7.90341C41.172 8.72372 42.2575 9.87547 43.0198 11.3587C43.7821 12.8336 44.1633 14.5571 44.1633 16.5291C44.1633 18.4846 43.7821 20.204 43.0198 21.6871C42.2575 23.1621 41.172 24.3138 39.7634 25.1424C38.3631 25.9627 36.6976 26.3729 34.767 26.3729ZM34.7918 22.2713C35.6701 22.2713 36.4034 22.0227 36.9917 21.5256C37.58 21.0201 38.0233 20.3324 38.3216 19.4624C38.6282 18.5923 38.7815 17.6022 38.7815 16.4918C38.7815 15.3815 38.6282 14.3913 38.3216 13.5213C38.0233 12.6513 37.58 11.9635 36.9917 11.4581C36.4034 10.9527 35.6701 10.6999 34.7918 10.6999C33.9052 10.6999 33.1595 10.9527 32.5546 11.4581C31.958 11.9635 31.5064 12.6513 31.1998 13.5213C30.9015 14.3913 30.7524 15.3815 30.7524 16.4918C30.7524 17.6022 30.9015 18.5923 31.1998 19.4624C31.5064 20.3324 31.958 21.0201 32.5546 21.5256C33.1595 22.0227 33.9052 22.2713 34.7918 22.2713ZM52.9008 0.545454V26H47.6061V0.545454H52.9008ZM69.3848 17.8714V6.90909H74.6795V26H69.5961V22.5323H69.3972C68.9663 23.6509 68.2496 24.55 67.247 25.2294C66.2527 25.9089 65.0388 26.2486 63.6053 26.2486C62.3292 26.2486 61.2065 25.9586 60.237 25.3786C59.2676 24.7985 58.5094 23.9741 57.9625 22.9052C57.4239 21.8363 57.1505 20.5561 57.1422 19.0646V6.90909H62.437V18.12C62.4453 19.2469 62.7477 20.1377 63.3443 20.7923C63.9409 21.4469 64.7405 21.7741 65.7431 21.7741C66.3811 21.7741 66.9777 21.6291 67.5328 21.3391C68.088 21.0408 68.5355 20.6017 68.8752 20.0217C69.2232 19.4416 69.3931 18.7249 69.3848 17.8714ZM84.2094 14.9631V26H78.9147V6.90909H83.9608V10.2773H84.1846C84.6072 9.16702 85.3156 8.28871 86.3099 7.6424C87.3042 6.98781 88.5099 6.66051 89.9268 6.66051C91.2525 6.66051 92.4084 6.95052 93.3944 7.53054C94.3805 8.11056 95.1469 8.93916 95.6938 10.0163C96.2407 11.0852 96.5141 12.3613 96.5141 13.8445V26H91.2194V14.7891C91.2277 13.6207 90.9294 12.7093 90.3245 12.0547C89.7196 11.3918 88.8869 11.0604 87.8263 11.0604C87.1137 11.0604 86.4839 11.2137 85.9371 11.5202C85.3985 11.8268 84.9759 12.2743 84.6693 12.8626C84.371 13.4426 84.2177 14.1428 84.2094 14.9631ZM110.842 6.90909V10.8864H99.3448V6.90909H110.842ZM101.955 2.33523H107.25V20.1335C107.25 20.6224 107.324 21.0036 107.473 21.277C107.623 21.5421 107.83 21.7286 108.095 21.8363C108.368 21.944 108.683 21.9979 109.039 21.9979C109.288 21.9979 109.537 21.9772 109.785 21.9357C110.034 21.886 110.224 21.8487 110.357 21.8239L111.19 25.7638C110.924 25.8467 110.552 25.942 110.071 26.0497C109.59 26.1657 109.006 26.2362 108.319 26.261C107.042 26.3107 105.924 26.1409 104.963 25.7514C104.01 25.362 103.268 24.7571 102.738 23.9368C102.208 23.1165 101.947 22.0807 101.955 20.8295V2.33523ZM122.786 26.3729C120.822 26.3729 119.132 25.9751 117.715 25.1797C116.306 24.3759 115.221 23.2408 114.458 21.7741C113.696 20.2992 113.315 18.555 113.315 16.5415C113.315 14.5778 113.696 12.8543 114.458 11.3711C115.221 9.8879 116.294 8.73201 117.678 7.90341C119.07 7.07481 120.702 6.66051 122.575 6.66051C123.834 6.66051 125.007 6.86352 126.092 7.26953C127.186 7.66726 128.139 8.26799 128.951 9.07173C129.771 9.87547 130.409 10.8864 130.865 12.1044C131.32 13.3142 131.548 14.7311 131.548 16.3551V17.8093H115.428V14.5281H126.564C126.564 13.7657 126.399 13.0904 126.067 12.5021C125.736 11.9138 125.276 11.454 124.688 11.1225C124.107 10.7828 123.432 10.6129 122.662 10.6129C121.858 10.6129 121.145 10.7994 120.524 11.1722C119.911 11.5368 119.43 12.0298 119.082 12.6513C118.734 13.2644 118.556 13.948 118.548 14.7021V17.8217C118.548 18.7663 118.722 19.5825 119.07 20.2702C119.426 20.958 119.927 21.4883 120.574 21.8612C121.22 22.234 121.986 22.4205 122.873 22.4205C123.461 22.4205 124 22.3376 124.489 22.1719C124.978 22.0062 125.396 21.7576 125.744 21.4261C126.092 21.0947 126.357 20.6887 126.539 20.2081L131.436 20.5312C131.188 21.7079 130.678 22.7353 129.908 23.6136C129.145 24.4837 128.159 25.1631 126.95 25.652C125.748 26.1326 124.36 26.3729 122.786 26.3729ZM143.704 26.3729C141.74 26.3729 140.05 25.9751 138.633 25.1797C137.224 24.3759 136.139 23.2408 135.376 21.7741C134.614 20.2992 134.233 18.555 134.233 16.5415C134.233 14.5778 134.614 12.8543 135.376 11.3711C136.139 9.8879 137.212 8.73201 138.596 7.90341C139.988 7.07481 141.62 6.66051 143.493 6.66051C144.752 6.66051 145.924 6.86352 147.01 7.26953C148.104 7.66726 149.057 8.26799 149.869 9.07173C150.689 9.87547 151.327 10.8864 151.783 12.1044C152.238 13.3142 152.466 14.7311 152.466 16.3551V17.8093H136.346V14.5281H147.482C147.482 13.7657 147.317 13.0904 146.985 12.5021C146.654 11.9138 146.194 11.454 145.605 11.1225C145.025 10.7828 144.35 10.6129 143.58 10.6129C142.776 10.6129 142.063 10.7994 141.442 11.1722C140.829 11.5368 140.348 12.0298 140 12.6513C139.652 13.2644 139.474 13.948 139.466 14.7021V17.8217C139.466 18.7663 139.64 19.5825 139.988 20.2702C140.344 20.958 140.845 21.4883 141.491 21.8612C142.138 22.234 142.904 22.4205 143.791 22.4205C144.379 22.4205 144.918 22.3376 145.407 22.1719C145.895 22.0062 146.314 21.7576 146.662 21.4261C147.01 21.0947 147.275 20.6887 147.457 20.2081L152.354 20.5312C152.106 21.7079 151.596 22.7353 150.826 23.6136C150.063 24.4837 149.077 25.1631 147.868 25.652C146.666 26.1326 145.278 26.3729 143.704 26.3729ZM155.922 26V6.90909H161.055V10.2401H161.254C161.602 9.05516 162.186 8.16027 163.006 7.5554C163.826 6.94223 164.771 6.63565 165.84 6.63565C166.105 6.63565 166.391 6.65222 166.697 6.68537C167.004 6.71851 167.273 6.76409 167.505 6.82209V11.5202C167.257 11.4457 166.913 11.3794 166.474 11.3214C166.035 11.2634 165.633 11.2344 165.268 11.2344C164.489 11.2344 163.793 11.4042 163.18 11.744C162.575 12.0754 162.095 12.5394 161.738 13.136C161.39 13.7326 161.216 14.4203 161.216 15.1992V26H155.922ZM186.127 12.353L181.28 12.6513C181.197 12.237 181.019 11.8641 180.745 11.5327C180.472 11.1929 180.111 10.9237 179.664 10.7248C179.225 10.5176 178.699 10.4141 178.085 10.4141C177.265 10.4141 176.573 10.5881 176.01 10.9361C175.446 11.2758 175.165 11.7315 175.165 12.3033C175.165 12.759 175.347 13.1443 175.712 13.4592C176.076 13.774 176.702 14.0268 177.588 14.2173L181.044 14.9134C182.9 15.2945 184.283 15.9077 185.195 16.7528C186.106 17.598 186.562 18.7083 186.562 20.0838C186.562 21.335 186.193 22.4329 185.456 23.3775C184.727 24.3221 183.724 25.0595 182.448 25.5898C181.18 26.1119 179.718 26.3729 178.061 26.3729C175.533 26.3729 173.52 25.8467 172.02 24.7944C170.529 23.7338 169.655 22.292 169.398 20.4691L174.605 20.1957C174.763 20.9663 175.144 21.5546 175.749 21.9606C176.354 22.3583 177.128 22.5572 178.073 22.5572C179.001 22.5572 179.747 22.379 180.31 22.0227C180.882 21.6581 181.172 21.19 181.18 20.6183C181.172 20.1377 180.969 19.7441 180.571 19.4375C180.174 19.1226 179.56 18.8823 178.732 18.7166L175.426 18.0579C173.561 17.685 172.173 17.0387 171.262 16.119C170.359 15.1992 169.907 14.0268 169.907 12.6016C169.907 11.3752 170.239 10.3188 170.902 9.43217C171.573 8.54557 172.513 7.86198 173.723 7.38139C174.941 6.9008 176.366 6.66051 177.998 6.66051C180.41 6.66051 182.307 7.1701 183.691 8.18927C185.083 9.20845 185.895 10.5964 186.127 12.353Z" fill="#4200FF"/>
</svg>
